{
	"asset":{
		"generator":"Khronos glTF Blender I/O v5.1.18",
		"version":"2.0"
	},
	"extensionsUsed":[
		"EXT_texture_webp"
	],
	"scene":0,
	"scenes":[
		{
			"name":"Scene",
			"nodes":[
				0
			]
		}
	],
	"nodes":[
		{
			"mesh":0,
			"name":"ball"
		}
	],
	"animations":[
		{
			"channels":[
				{
					"sampler":0,
					"target":{
						"node":0,
						"path":"translation"
					}
				},
				{
					"sampler":1,
					"target":{
						"node":0,
						"path":"rotation"
					}
				},
				{
					"sampler":2,
					"target":{
						"node":0,
						"path":"scale"
					}
				}
			],
			"name":"Action.001",
			"samplers":[
				{
					"input":4,
					"interpolation":"LINEAR",
					"output":5
				},
				{
					"input":6,
					"interpolation":"STEP",
					"output":7
				},
				{
					"input":6,
					"interpolation":"STEP",
					"output":8
				}
			]
		}
	],
	"materials":[
		{
			"doubleSided":true,
			"name":"\u6750\u8d28",
			"pbrMetallicRoughness":{
				"baseColorTexture":{
					"index":0
				},
				"metallicFactor":0,
				"roughnessFactor":0.9041095972061157
			}
		}
	],
	"meshes":[
		{
			"name":"\u7403\u4f53",
			"primitives":[
				{
					"attributes":{
						"POSITION":0,
						"NORMAL":1,
						"TEXCOORD_0":2
					},
					"indices":3,
					"material":0
				}
			]
		}
	],
	"textures":[
		{
			"extensions":{
				"EXT_texture_webp":{
					"source":0
				}
			},
			"sampler":0,
			"source":1
		}
	],
	"images":[
		{
			"mimeType":"image/webp",
			"name":"earth",
			"uri":"earth.webp"
		},
		{
			"mimeType":"image/jpeg",
			"name":"earth",
			"uri":"earth.jpg"
		}
	],
	"accessors":[
		{
			"bufferView":0,
			"componentType":5126,
			"count":31744,
			"max":[
				0.25000008940696716,
				0.25,
				0.2499999701976776
			],
			"min":[
				-0.24999995529651642,
				-0.25,
				-0.2500000298023224
			],
			"type":"VEC3"
		},
		{
			"bufferView":1,
			"componentType":5126,
			"count":31744,
			"type":"VEC3"
		},
		{
			"bufferView":2,
			"componentType":5126,
			"count":31744,
			"type":"VEC2"
		},
		{
			"bufferView":3,
			"componentType":5123,
			"count":47616,
			"type":"SCALAR"
		},
		{
			"bufferView":4,
			"componentType":5126,
			"count":60,
			"max":[
				2.5
			],
			"min":[
				0.041666666666666664
			],
			"type":"SCALAR"
		},
		{
			"bufferView":5,
			"componentType":5126,
			"count":60,
			"type":"VEC3"
		},
		{
			"bufferView":6,
			"componentType":5126,
			"count":2,
			"max":[
				2.5
			],
			"min":[
				0.041666666666666664
			],
			"type":"SCALAR"
		},
		{
			"bufferView":7,
			"componentType":5126,
			"count":2,
			"type":"VEC4"
		},
		{
			"bufferView":8,
			"componentType":5126,
			"count":2,
			"type":"VEC3"
		}
	],
	"bufferViews":[
		{
			"buffer":0,
			"byteLength":380928,
			"byteOffset":0,
			"target":34962
		},
		{
			"buffer":0,
			"byteLength":380928,
			"byteOffset":380928,
			"target":34962
		},
		{
			"buffer":0,
			"byteLength":253952,
			"byteOffset":761856,
			"target":34962
		},
		{
			"buffer":0,
			"byteLength":95232,
			"byteOffset":1015808,
			"target":34963
		},
		{
			"buffer":0,
			"byteLength":240,
			"byteOffset":1111040
		},
		{
			"buffer":0,
			"byteLength":720,
			"byteOffset":1111280
		},
		{
			"buffer":0,
			"byteLength":8,
			"byteOffset":1112000
		},
		{
			"buffer":0,
			"byteLength":32,
			"byteOffset":1112008
		},
		{
			"buffer":0,
			"byteLength":24,
			"byteOffset":1112040
		}
	],
	"samplers":[
		{
			"magFilter":9729,
			"minFilter":9987
		}
	],
	"buffers":[
		{
			"byteLength":1112064,
			"uri":"ball.bin"
		}
	]
}
